<mxfile host="Electron" modified="2023-12-13T22:46:05.815Z" agent="Mozilla/5.0 (Windows NT 10.0; Win64; x64) AppleWebKit/537.36 (KHTML, like Gecko) draw.io/22.1.2 Chrome/114.0.5735.289 Electron/25.9.4 Safari/537.36" etag="_b3A8pKEBEYs8uLPzzSk" version="22.1.2" type="device">
  <diagram name="Страница — 1" id="I3ibwsfcRLccU0h-Jss8">
    <mxGraphModel dx="643" dy="833" grid="1" gridSize="10" guides="1" tooltips="1" connect="1" arrows="1" fold="1" page="1" pageScale="1" pageWidth="827" pageHeight="1169" math="0" shadow="0">
      <root>
        <mxCell id="0" />
        <mxCell id="1" parent="0" />
        <mxCell id="oOGNIqgAqaKnAAO6HUpm-18" value="" style="edgeStyle=orthogonalEdgeStyle;rounded=0;orthogonalLoop=1;jettySize=auto;html=1;" edge="1" parent="1" source="oOGNIqgAqaKnAAO6HUpm-5" target="oOGNIqgAqaKnAAO6HUpm-13">
          <mxGeometry relative="1" as="geometry" />
        </mxCell>
        <mxCell id="oOGNIqgAqaKnAAO6HUpm-21" value="" style="edgeStyle=orthogonalEdgeStyle;rounded=0;orthogonalLoop=1;jettySize=auto;html=1;" edge="1" parent="1" source="oOGNIqgAqaKnAAO6HUpm-5" target="oOGNIqgAqaKnAAO6HUpm-10">
          <mxGeometry relative="1" as="geometry" />
        </mxCell>
        <mxCell id="oOGNIqgAqaKnAAO6HUpm-33" style="edgeStyle=orthogonalEdgeStyle;rounded=0;orthogonalLoop=1;jettySize=auto;html=1;exitX=1;exitY=0.5;exitDx=0;exitDy=0;entryX=0;entryY=0.5;entryDx=0;entryDy=0;" edge="1" parent="1" source="oOGNIqgAqaKnAAO6HUpm-5" target="oOGNIqgAqaKnAAO6HUpm-32">
          <mxGeometry relative="1" as="geometry" />
        </mxCell>
        <mxCell id="oOGNIqgAqaKnAAO6HUpm-5" value="Главная страница" style="rounded=0;whiteSpace=wrap;html=1;" vertex="1" parent="1">
          <mxGeometry x="80" y="310" width="120" height="60" as="geometry" />
        </mxCell>
        <mxCell id="oOGNIqgAqaKnAAO6HUpm-22" value="" style="edgeStyle=orthogonalEdgeStyle;rounded=0;orthogonalLoop=1;jettySize=auto;html=1;" edge="1" parent="1" source="oOGNIqgAqaKnAAO6HUpm-10" target="oOGNIqgAqaKnAAO6HUpm-11">
          <mxGeometry relative="1" as="geometry" />
        </mxCell>
        <mxCell id="oOGNIqgAqaKnAAO6HUpm-10" value="Авторизация" style="rounded=0;whiteSpace=wrap;html=1;" vertex="1" parent="1">
          <mxGeometry x="80" y="180" width="120" height="60" as="geometry" />
        </mxCell>
        <mxCell id="oOGNIqgAqaKnAAO6HUpm-23" value="" style="edgeStyle=orthogonalEdgeStyle;rounded=0;orthogonalLoop=1;jettySize=auto;html=1;entryX=0;entryY=0.5;entryDx=0;entryDy=0;" edge="1" parent="1" source="oOGNIqgAqaKnAAO6HUpm-11" target="oOGNIqgAqaKnAAO6HUpm-12">
          <mxGeometry relative="1" as="geometry">
            <mxPoint x="400" y="170" as="targetPoint" />
          </mxGeometry>
        </mxCell>
        <mxCell id="oOGNIqgAqaKnAAO6HUpm-25" style="edgeStyle=orthogonalEdgeStyle;rounded=0;orthogonalLoop=1;jettySize=auto;html=1;exitX=1;exitY=0.5;exitDx=0;exitDy=0;entryX=0;entryY=0.5;entryDx=0;entryDy=0;" edge="1" parent="1" source="oOGNIqgAqaKnAAO6HUpm-11" target="oOGNIqgAqaKnAAO6HUpm-24">
          <mxGeometry relative="1" as="geometry">
            <mxPoint x="400" y="250" as="targetPoint" />
          </mxGeometry>
        </mxCell>
        <mxCell id="oOGNIqgAqaKnAAO6HUpm-37" style="edgeStyle=orthogonalEdgeStyle;rounded=0;orthogonalLoop=1;jettySize=auto;html=1;exitX=0.5;exitY=0;exitDx=0;exitDy=0;entryX=0.5;entryY=1;entryDx=0;entryDy=0;" edge="1" parent="1" source="oOGNIqgAqaKnAAO6HUpm-11" target="oOGNIqgAqaKnAAO6HUpm-36">
          <mxGeometry relative="1" as="geometry" />
        </mxCell>
        <mxCell id="oOGNIqgAqaKnAAO6HUpm-11" value="Личный кабинет" style="rounded=0;whiteSpace=wrap;html=1;" vertex="1" parent="1">
          <mxGeometry x="240" y="180" width="120" height="60" as="geometry" />
        </mxCell>
        <mxCell id="oOGNIqgAqaKnAAO6HUpm-12" value="Приобретенные билеты" style="rounded=0;whiteSpace=wrap;html=1;" vertex="1" parent="1">
          <mxGeometry x="420" y="140" width="120" height="60" as="geometry" />
        </mxCell>
        <mxCell id="oOGNIqgAqaKnAAO6HUpm-19" value="" style="edgeStyle=orthogonalEdgeStyle;rounded=0;orthogonalLoop=1;jettySize=auto;html=1;" edge="1" parent="1" source="oOGNIqgAqaKnAAO6HUpm-13" target="oOGNIqgAqaKnAAO6HUpm-16">
          <mxGeometry relative="1" as="geometry" />
        </mxCell>
        <mxCell id="oOGNIqgAqaKnAAO6HUpm-30" style="edgeStyle=orthogonalEdgeStyle;rounded=0;orthogonalLoop=1;jettySize=auto;html=1;exitX=1;exitY=0.5;exitDx=0;exitDy=0;entryX=0;entryY=0.5;entryDx=0;entryDy=0;" edge="1" parent="1" source="oOGNIqgAqaKnAAO6HUpm-13" target="oOGNIqgAqaKnAAO6HUpm-29">
          <mxGeometry relative="1" as="geometry">
            <mxPoint x="230" y="460.2222222222222" as="targetPoint" />
            <Array as="points" />
          </mxGeometry>
        </mxCell>
        <mxCell id="oOGNIqgAqaKnAAO6HUpm-13" value="Мероприятия" style="rounded=0;whiteSpace=wrap;html=1;" vertex="1" parent="1">
          <mxGeometry x="80" y="430" width="120" height="60" as="geometry" />
        </mxCell>
        <mxCell id="oOGNIqgAqaKnAAO6HUpm-14" value="Покупка/бронирование билета" style="rounded=0;whiteSpace=wrap;html=1;" vertex="1" parent="1">
          <mxGeometry x="409.98" y="350" width="120" height="60" as="geometry" />
        </mxCell>
        <mxCell id="oOGNIqgAqaKnAAO6HUpm-35" style="edgeStyle=orthogonalEdgeStyle;rounded=0;orthogonalLoop=1;jettySize=auto;html=1;exitX=1;exitY=0.5;exitDx=0;exitDy=0;entryX=0.5;entryY=1;entryDx=0;entryDy=0;" edge="1" parent="1" source="oOGNIqgAqaKnAAO6HUpm-16" target="oOGNIqgAqaKnAAO6HUpm-29">
          <mxGeometry relative="1" as="geometry" />
        </mxCell>
        <mxCell id="oOGNIqgAqaKnAAO6HUpm-16" value="Поиск" style="rounded=0;whiteSpace=wrap;html=1;" vertex="1" parent="1">
          <mxGeometry x="80" y="560" width="120" height="60" as="geometry" />
        </mxCell>
        <mxCell id="oOGNIqgAqaKnAAO6HUpm-24" value="Желаемое" style="rounded=0;whiteSpace=wrap;html=1;" vertex="1" parent="1">
          <mxGeometry x="420" y="220" width="120" height="60" as="geometry" />
        </mxCell>
        <mxCell id="oOGNIqgAqaKnAAO6HUpm-27" style="edgeStyle=orthogonalEdgeStyle;rounded=0;orthogonalLoop=1;jettySize=auto;html=1;entryX=1;entryY=0.5;entryDx=0;entryDy=0;" edge="1" parent="1" source="oOGNIqgAqaKnAAO6HUpm-26" target="oOGNIqgAqaKnAAO6HUpm-14">
          <mxGeometry relative="1" as="geometry">
            <Array as="points">
              <mxPoint x="549.98" y="460" />
              <mxPoint x="549.98" y="380" />
            </Array>
          </mxGeometry>
        </mxCell>
        <mxCell id="oOGNIqgAqaKnAAO6HUpm-26" value="Просмотр схемы зала" style="rounded=0;whiteSpace=wrap;html=1;" vertex="1" parent="1">
          <mxGeometry x="409.98" y="430" width="120" height="60" as="geometry" />
        </mxCell>
        <mxCell id="oOGNIqgAqaKnAAO6HUpm-39" style="edgeStyle=orthogonalEdgeStyle;rounded=0;orthogonalLoop=1;jettySize=auto;html=1;exitX=1;exitY=0.5;exitDx=0;exitDy=0;entryX=0;entryY=0.5;entryDx=0;entryDy=0;" edge="1" parent="1" source="oOGNIqgAqaKnAAO6HUpm-29" target="oOGNIqgAqaKnAAO6HUpm-14">
          <mxGeometry relative="1" as="geometry" />
        </mxCell>
        <mxCell id="oOGNIqgAqaKnAAO6HUpm-40" style="edgeStyle=orthogonalEdgeStyle;rounded=0;orthogonalLoop=1;jettySize=auto;html=1;exitX=1;exitY=0.5;exitDx=0;exitDy=0;entryX=0;entryY=0.5;entryDx=0;entryDy=0;" edge="1" parent="1" source="oOGNIqgAqaKnAAO6HUpm-29" target="oOGNIqgAqaKnAAO6HUpm-38">
          <mxGeometry relative="1" as="geometry" />
        </mxCell>
        <mxCell id="oOGNIqgAqaKnAAO6HUpm-41" style="edgeStyle=orthogonalEdgeStyle;rounded=0;orthogonalLoop=1;jettySize=auto;html=1;exitX=1;exitY=0.5;exitDx=0;exitDy=0;entryX=0;entryY=0.5;entryDx=0;entryDy=0;" edge="1" parent="1" source="oOGNIqgAqaKnAAO6HUpm-29" target="oOGNIqgAqaKnAAO6HUpm-26">
          <mxGeometry relative="1" as="geometry" />
        </mxCell>
        <mxCell id="oOGNIqgAqaKnAAO6HUpm-29" value="Мероприятие" style="rounded=0;whiteSpace=wrap;html=1;" vertex="1" parent="1">
          <mxGeometry x="240" y="430" width="120" height="60" as="geometry" />
        </mxCell>
        <mxCell id="oOGNIqgAqaKnAAO6HUpm-34" style="edgeStyle=orthogonalEdgeStyle;rounded=0;orthogonalLoop=1;jettySize=auto;html=1;exitX=0.5;exitY=1;exitDx=0;exitDy=0;entryX=0.5;entryY=0;entryDx=0;entryDy=0;" edge="1" parent="1" source="oOGNIqgAqaKnAAO6HUpm-32" target="oOGNIqgAqaKnAAO6HUpm-29">
          <mxGeometry relative="1" as="geometry" />
        </mxCell>
        <mxCell id="oOGNIqgAqaKnAAO6HUpm-32" value="Акции" style="rounded=0;whiteSpace=wrap;html=1;" vertex="1" parent="1">
          <mxGeometry x="240" y="310" width="120" height="60" as="geometry" />
        </mxCell>
        <mxCell id="oOGNIqgAqaKnAAO6HUpm-36" value="Редактирование" style="rounded=0;whiteSpace=wrap;html=1;" vertex="1" parent="1">
          <mxGeometry x="240" y="80" width="120" height="60" as="geometry" />
        </mxCell>
        <mxCell id="oOGNIqgAqaKnAAO6HUpm-38" value="Оставить отзыв" style="rounded=0;whiteSpace=wrap;html=1;" vertex="1" parent="1">
          <mxGeometry x="409.98" y="510" width="120" height="60" as="geometry" />
        </mxCell>
      </root>
    </mxGraphModel>
  </diagram>
</mxfile>
